<?xml version="1.0" encoding="UTF-8" standalone="no"?>
<!DOCTYPE svg PUBLIC "-//W3C//DTD SVG 1.1//EN" "http://www.w3.org/Graphics/SVG/1.1/DTD/svg11.dtd">
<svg width="100%" height="100%" viewBox="0 0 1616 860" version="1.1" xmlns="http://www.w3.org/2000/svg" xmlns:xlink="http://www.w3.org/1999/xlink" xml:space="preserve" xmlns:serif="http://www.serif.com/" style="fill-rule:evenodd;clip-rule:evenodd;stroke-linejoin:round;stroke-miterlimit:1.41421;">
    <g transform="matrix(1,0,0,1,-136.678,-1324.08)">
        <g transform="matrix(1.0278,0,0,1.1454,-76.0347,-297.31)">
            <path d="M1771.24,1472.13C1771.24,1444.77 1746.48,1422.55 1715.98,1422.55L269.997,1422.55C239.502,1422.55 214.744,1444.77 214.744,1472.13L214.744,2109.59C214.744,2136.96 239.502,2159.17 269.997,2159.17L1715.98,2159.17C1746.48,2159.17 1771.24,2136.96 1771.24,2109.59L1771.24,1472.13Z" style="fill:white;"/>
            <path d="M1716.39,1415.57L1716.8,1415.57L1717.2,1415.58L1717.61,1415.59L1718.01,1415.6L1718.41,1415.61L1718.82,1415.63L1719.22,1415.64L1719.62,1415.66L1720.02,1415.68L1720.42,1415.71L1720.82,1415.73L1721.22,1415.76L1721.62,1415.79L1722.02,1415.83L1722.42,1415.86L1722.81,1415.9L1723.21,1415.94L1723.61,1415.98L1724,1416.02L1724.39,1416.07L1724.79,1416.12L1725.18,1416.17L1725.57,1416.22L1725.96,1416.28L1726.35,1416.33L1726.74,1416.39L1727.13,1416.45L1727.52,1416.52L1727.9,1416.58L1728.29,1416.65L1728.68,1416.72L1729.06,1416.79L1729.44,1416.87L1729.83,1416.94L1730.21,1417.02L1730.59,1417.1L1730.97,1417.18L1731.35,1417.27L1731.73,1417.35L1732.11,1417.44L1732.48,1417.53L1732.86,1417.62L1733.23,1417.72L1733.61,1417.81L1733.98,1417.91L1734.35,1418.01L1734.72,1418.12L1735.09,1418.22L1735.46,1418.33L1735.83,1418.43L1736.19,1418.55L1736.56,1418.66L1736.92,1418.77L1737.29,1418.89L1737.65,1419.01L1738.01,1419.13L1738.37,1419.25L1738.74,1419.37L1739.09,1419.5L1739.45,1419.63L1739.81,1419.76L1740.16,1419.89L1740.52,1420.02L1740.87,1420.16L1741.22,1420.29L1741.57,1420.43L1741.92,1420.57L1742.27,1420.71L1742.62,1420.86L1742.97,1421.01L1743.31,1421.15L1743.65,1421.31L1744,1421.46L1744.34,1421.61L1744.68,1421.77L1745.02,1421.92L1745.36,1422.08L1745.69,1422.24L1746.03,1422.4L1746.36,1422.57L1746.7,1422.74L1747.03,1422.9L1747.36,1423.07L1747.69,1423.24L1748.02,1423.42L1748.34,1423.59L1748.67,1423.77L1748.99,1423.95L1749.32,1424.13L1749.64,1424.31L1749.96,1424.49L1750.28,1424.67L1750.6,1424.86L1750.91,1425.05L1751.23,1425.24L1751.54,1425.43L1751.85,1425.62L1752.16,1425.82L1752.47,1426.02L1752.78,1426.21L1753.09,1426.41L1753.39,1426.61L1753.7,1426.82L1754,1427.02L1754.3,1427.23L1754.6,1427.43L1754.9,1427.64L1755.19,1427.85L1755.49,1428.07L1755.78,1428.28L1756.08,1428.5L1756.37,1428.71L1756.66,1428.93L1756.94,1429.15L1757.23,1429.37L1757.52,1429.59L1757.8,1429.82L1758.08,1430.04L1758.36,1430.27L1758.64,1430.5L1758.92,1430.73L1759.19,1430.96L1759.47,1431.2L1759.74,1431.43L1760.01,1431.67L1760.28,1431.9L1760.55,1432.14L1760.82,1432.38L1761.08,1432.63L1761.34,1432.87L1761.61,1433.11L1761.87,1433.36L1762.12,1433.61L1762.38,1433.86L1762.64,1434.11L1762.89,1434.36L1763.14,1434.61L1763.39,1434.87L1763.64,1435.12L1763.89,1435.38L1764.13,1435.64L1764.38,1435.9L1764.62,1436.16L1764.86,1436.42L1765.09,1436.68L1765.33,1436.95L1765.57,1437.22L1765.8,1437.48L1766.03,1437.75L1766.26,1438.02L1766.49,1438.29L1766.71,1438.57L1766.94,1438.84L1767.16,1439.12L1767.38,1439.39L1767.6,1439.67L1767.82,1439.95L1768.03,1440.23L1768.25,1440.51L1768.46,1440.79L1768.66,1441.08L1768.87,1441.36L1769.08,1441.65L1769.28,1441.94L1769.49,1442.22L1769.68,1442.51L1769.88,1442.81L1770.08,1443.1L1770.28,1443.39L1770.47,1443.69L1770.66,1443.98L1770.85,1444.28L1771.04,1444.58L1771.22,1444.87L1771.4,1445.17L1771.58,1445.48L1771.76,1445.78L1771.94,1446.08L1772.12,1446.38L1772.29,1446.69L1772.46,1447L1772.63,1447.31L1772.8,1447.61L1772.96,1447.92L1773.12,1448.23L1773.29,1448.55L1773.44,1448.86L1773.6,1449.17L1773.76,1449.49L1773.91,1449.8L1774.06,1450.12L1774.21,1450.44L1774.36,1450.76L1774.5,1451.08L1774.64,1451.4L1774.78,1451.72L1774.92,1452.04L1775.06,1452.37L1775.19,1452.69L1775.32,1453.02L1775.45,1453.34L1775.58,1453.67L1775.7,1454L1775.83,1454.33L1775.95,1454.66L1776.07,1454.99L1776.18,1455.32L1776.3,1455.65L1776.41,1455.99L1776.52,1456.32L1776.63,1456.66L1776.73,1456.99L1776.84,1457.33L1776.93,1457.67L1777.03,1458.01L1777.13,1458.35L1777.22,1458.69L1777.32,1459.03L1777.4,1459.37L1777.49,1459.71L1777.58,1460.06L1777.66,1460.4L1777.74,1460.75L1777.82,1461.09L1777.89,1461.44L1777.97,1461.79L1778.04,1462.13L1778.1,1462.48L1778.17,1462.83L1778.23,1463.18L1778.29,1463.53L1778.35,1463.88L1778.41,1464.24L1778.46,1464.59L1778.51,1464.94L1778.56,1465.29L1778.61,1465.65L1778.65,1466.01L1778.69,1466.36L1778.73,1466.72L1778.77,1467.08L1778.81,1467.43L1778.84,1467.79L1778.87,1468.15L1778.89,1468.51L1778.92,1468.87L1778.94,1469.23L1778.96,1469.59L1778.97,1469.95L1778.99,1470.32L1779,1470.68L1779.01,1471.04L1779.02,1471.4L1779.02,1471.77L1779.02,1472.12L1779.02,2109.6L1779.02,2109.96L1779.02,2110.32L1779.01,2110.68L1779,2111.05L1778.99,2111.41L1778.97,2111.77L1778.96,2112.14L1778.94,2112.5L1778.92,2112.86L1778.89,2113.22L1778.87,2113.58L1778.84,2113.94L1778.81,2114.29L1778.77,2114.65L1778.73,2115.01L1778.69,2115.37L1778.65,2115.72L1778.61,2116.08L1778.56,2116.43L1778.51,2116.79L1778.46,2117.14L1778.41,2117.49L1778.35,2117.84L1778.29,2118.2L1778.23,2118.55L1778.17,2118.89L1778.1,2119.24L1778.04,2119.59L1777.97,2119.94L1777.89,2120.29L1777.82,2120.64L1777.74,2120.98L1777.66,2121.33L1777.58,2121.67L1777.49,2122.01L1777.4,2122.36L1777.32,2122.7L1777.22,2123.04L1777.13,2123.38L1777.03,2123.72L1776.94,2124.06L1776.84,2124.4L1776.73,2124.73L1776.63,2125.07L1776.52,2125.4L1776.41,2125.74L1776.3,2126.07L1776.18,2126.41L1776.07,2126.74L1775.95,2127.07L1775.83,2127.4L1775.7,2127.73L1775.58,2128.06L1775.45,2128.38L1775.32,2128.71L1775.19,2129.04L1775.06,2129.36L1774.92,2129.68L1774.78,2130.01L1774.64,2130.33L1774.5,2130.65L1774.36,2130.97L1774.21,2131.29L1774.06,2131.61L1773.91,2131.92L1773.76,2132.24L1773.6,2132.55L1773.44,2132.87L1773.29,2133.18L1773.12,2133.49L1772.96,2133.8L1772.8,2134.11L1772.63,2134.42L1772.46,2134.73L1772.29,2135.04L1772.12,2135.34L1771.94,2135.65L1771.76,2135.95L1771.58,2136.25L1771.4,2136.55L1771.22,2136.85L1771.03,2137.15L1770.85,2137.45L1770.66,2137.74L1770.47,2138.04L1770.28,2138.34L1770.08,2138.63L1769.88,2138.92L1769.68,2139.21L1769.49,2139.5L1769.28,2139.79L1769.08,2140.08L1768.87,2140.36L1768.66,2140.65L1768.46,2140.93L1768.24,2141.22L1768.03,2141.5L1767.82,2141.78L1767.6,2142.06L1767.38,2142.34L1767.16,2142.61L1766.94,2142.89L1766.71,2143.16L1766.49,2143.43L1766.26,2143.7L1766.03,2143.97L1765.8,2144.24L1765.57,2144.51L1765.33,2144.78L1765.09,2145.04L1764.86,2145.31L1764.62,2145.57L1764.37,2145.83L1764.13,2146.09L1763.89,2146.35L1763.64,2146.61L1763.39,2146.86L1763.14,2147.12L1762.89,2147.37L1762.64,2147.62L1762.38,2147.87L1762.12,2148.12L1761.87,2148.37L1761.61,2148.61L1761.34,2148.86L1761.08,2149.1L1760.82,2149.34L1760.55,2149.58L1760.28,2149.82L1760.01,2150.06L1759.74,2150.3L1759.47,2150.53L1759.19,2150.76L1758.92,2150.99L1758.64,2151.23L1758.36,2151.45L1758.08,2151.68L1757.8,2151.91L1757.52,2152.13L1757.23,2152.36L1756.94,2152.58L1756.66,2152.8L1756.37,2153.01L1756.08,2153.23L1755.78,2153.45L1755.49,2153.66L1755.19,2153.87L1754.9,2154.08L1754.6,2154.29L1754.3,2154.5L1754,2154.71L1753.7,2154.91L1753.39,2155.11L1753.09,2155.32L1752.78,2155.51L1752.47,2155.71L1752.16,2155.91L1751.85,2156.1L1751.54,2156.3L1751.23,2156.49L1750.91,2156.68L1750.6,2156.87L1750.28,2157.05L1749.96,2157.24L1749.64,2157.42L1749.32,2157.6L1748.99,2157.78L1748.67,2157.96L1748.34,2158.14L1748.02,2158.31L1747.69,2158.48L1747.36,2158.65L1747.03,2158.82L1746.69,2158.99L1746.36,2159.16L1746.03,2159.32L1745.69,2159.48L1745.36,2159.64L1745.02,2159.8L1744.68,2159.96L1744.34,2160.12L1744,2160.27L1743.65,2160.42L1743.31,2160.57L1742.97,2160.72L1742.62,2160.87L1742.27,2161.01L1741.92,2161.15L1741.57,2161.3L1741.22,2161.43L1740.87,2161.57L1740.52,2161.71L1740.16,2161.84L1739.81,2161.97L1739.45,2162.1L1739.09,2162.23L1738.73,2162.35L1738.38,2162.48L1738.01,2162.6L1737.65,2162.72L1737.29,2162.84L1736.92,2162.95L1736.56,2163.07L1736.19,2163.18L1735.83,2163.29L1735.46,2163.4L1735.09,2163.51L1734.72,2163.61L1734.35,2163.71L1733.98,2163.81L1733.61,2163.91L1733.23,2164.01L1732.86,2164.1L1732.48,2164.2L1732.1,2164.29L1731.73,2164.37L1731.35,2164.46L1730.97,2164.55L1730.59,2164.63L1730.21,2164.71L1729.83,2164.78L1729.44,2164.86L1729.06,2164.94L1728.68,2165.01L1728.29,2165.08L1727.9,2165.14L1727.52,2165.21L1727.13,2165.27L1726.74,2165.33L1726.35,2165.39L1725.96,2165.45L1725.57,2165.51L1725.18,2165.56L1724.79,2165.61L1724.39,2165.66L1724,2165.7L1723.61,2165.75L1723.21,2165.79L1722.82,2165.83L1722.42,2165.87L1722.02,2165.9L1721.62,2165.93L1721.23,2165.96L1720.82,2165.99L1720.42,2166.02L1720.02,2166.04L1719.62,2166.06L1719.22,2166.08L1718.82,2166.1L1718.42,2166.12L1718.01,2166.13L1717.61,2166.14L1717.2,2166.15L1716.8,2166.15L1716.39,2166.16L1715.99,2166.16L269.986,2166.16L269.59,2166.16L269.184,2166.15L268.779,2166.15L268.374,2166.14L267.972,2166.13L267.565,2166.12L267.161,2166.1L266.76,2166.08L266.36,2166.06L265.957,2166.04L265.558,2166.02L265.159,2165.99L264.755,2165.96L264.358,2165.93L263.963,2165.9L263.563,2165.87L263.164,2165.83L262.771,2165.79L262.376,2165.75L261.981,2165.7L261.587,2165.66L261.194,2165.61L260.801,2165.56L260.409,2165.51L260.02,2165.45L259.628,2165.39L259.241,2165.33L258.851,2165.27L258.462,2165.21L258.078,2165.14L257.691,2165.08L257.303,2165.01L256.922,2164.94L256.536,2164.86L256.154,2164.78L255.772,2164.71L255.391,2164.63L255.013,2164.55L254.631,2164.46L254.252,2164.37L253.877,2164.29L253.5,2164.2L253.123,2164.1L252.75,2164.01L252.375,2163.91L252.001,2163.81L251.633,2163.71L251.26,2163.61L250.889,2163.51L250.523,2163.4L250.153,2163.29L249.786,2163.18L249.421,2163.07L249.056,2162.95L248.692,2162.84L248.329,2162.72L247.967,2162.6L247.605,2162.48L247.247,2162.35L246.888,2162.23L246.532,2162.1L246.174,2161.97L245.818,2161.84L245.465,2161.71L245.11,2161.57L244.759,2161.43L244.408,2161.3L244.059,2161.15L243.711,2161.01L243.361,2160.87L243.015,2160.72L242.672,2160.57L242.328,2160.42L241.983,2160.27L241.64,2160.12L241.302,2159.96L240.964,2159.8L240.625,2159.64L240.287,2159.48L239.951,2159.32L239.617,2159.16L239.285,2158.99L238.952,2158.82L238.622,2158.65L238.293,2158.48L237.965,2158.31L237.637,2158.14L237.311,2157.96L236.987,2157.78L236.664,2157.6L236.344,2157.42L236.024,2157.24L235.704,2157.05L235.386,2156.87L235.069,2156.68L234.755,2156.49L234.441,2156.3L234.127,2156.1L233.819,2155.91L233.509,2155.71L233.199,2155.51L232.895,2155.32L232.588,2155.11L232.284,2154.91L231.982,2154.71L231.679,2154.5L231.381,2154.29L231.083,2154.08L230.786,2153.87L230.492,2153.66L230.198,2153.45L229.903,2153.23L229.613,2153.01L229.325,2152.8L229.036,2152.58L228.749,2152.36L228.464,2152.13L228.181,2151.91L227.898,2151.68L227.618,2151.45L227.34,2151.23L227.062,2151L226.787,2150.76L226.512,2150.53L226.24,2150.3L225.968,2150.06L225.699,2149.82L225.432,2149.58L225.165,2149.34L224.9,2149.1L224.636,2148.86L224.374,2148.61L224.116,2148.37L223.857,2148.12L223.599,2147.87L223.345,2147.62L223.092,2147.37L222.84,2147.12L222.59,2146.86L222.342,2146.61L222.094,2146.35L221.849,2146.09L221.607,2145.83L221.365,2145.57L221.124,2145.3L220.886,2145.04L220.651,2144.78L220.416,2144.51L220.182,2144.24L219.95,2143.97L219.721,2143.7L219.494,2143.43L219.268,2143.16L219.044,2142.89L218.82,2142.61L218.601,2142.34L218.382,2142.06L218.164,2141.78L217.95,2141.5L217.737,2141.22L217.524,2140.93L217.315,2140.65L217.107,2140.37L216.901,2140.08L216.698,2139.79L216.495,2139.5L216.295,2139.21L216.096,2138.92L215.899,2138.63L215.706,2138.34L215.513,2138.04L215.321,2137.75L215.133,2137.45L214.946,2137.15L214.761,2136.85L214.578,2136.55L214.397,2136.25L214.217,2135.95L214.041,2135.65L213.865,2135.34L213.692,2135.03L213.521,2134.73L213.352,2134.42L213.185,2134.11L213.019,2133.8L212.856,2133.49L212.695,2133.18L212.536,2132.87L212.379,2132.55L212.224,2132.24L212.072,2131.92L211.921,2131.61L211.772,2131.29L211.626,2130.97L211.481,2130.65L211.338,2130.33L211.198,2130.01L211.06,2129.68L210.924,2129.36L210.791,2129.04L210.659,2128.71L210.529,2128.38L210.402,2128.06L210.277,2127.73L210.154,2127.4L210.033,2127.07L209.914,2126.74L209.798,2126.41L209.683,2126.07L209.572,2125.74L209.462,2125.4L209.354,2125.07L209.249,2124.73L209.146,2124.4L209.045,2124.06L208.947,2123.72L208.851,2123.38L208.757,2123.04L208.665,2122.7L208.576,2122.36L208.489,2122.01L208.404,2121.67L208.322,2121.33L208.242,2120.98L208.164,2120.64L208.089,2120.29L208.016,2119.94L207.945,2119.59L207.877,2119.24L207.811,2118.9L207.748,2118.55L207.687,2118.2L207.628,2117.84L207.572,2117.49L207.518,2117.14L207.467,2116.79L207.418,2116.43L207.371,2116.08L207.327,2115.72L207.286,2115.37L207.246,2115.01L207.21,2114.65L207.176,2114.29L207.144,2113.94L207.115,2113.58L207.088,2113.22L207.064,2112.86L207.042,2112.5L207.023,2112.14L207.006,2111.77L206.992,2111.41L206.981,2111.05L206.972,2110.68L206.965,2110.32L206.961,2109.96L206.96,2109.6L206.96,1472.12L206.961,1471.77L206.965,1471.4L206.972,1471.04L206.981,1470.68L206.992,1470.32L207.006,1469.95L207.023,1469.59L207.042,1469.23L207.064,1468.87L207.088,1468.51L207.115,1468.15L207.144,1467.79L207.176,1467.43L207.21,1467.08L207.246,1466.72L207.286,1466.36L207.327,1466.01L207.371,1465.65L207.418,1465.3L207.467,1464.94L207.518,1464.59L207.572,1464.24L207.628,1463.88L207.687,1463.53L207.748,1463.18L207.811,1462.83L207.877,1462.48L207.945,1462.13L208.016,1461.79L208.089,1461.44L208.164,1461.09L208.242,1460.75L208.322,1460.4L208.404,1460.06L208.489,1459.71L208.576,1459.37L208.665,1459.03L208.757,1458.69L208.851,1458.35L208.947,1458.01L209.045,1457.67L209.146,1457.33L209.249,1456.99L209.354,1456.66L209.462,1456.32L209.572,1455.99L209.684,1455.65L209.798,1455.32L209.914,1454.99L210.033,1454.66L210.154,1454.33L210.277,1454L210.402,1453.67L210.529,1453.34L210.659,1453.02L210.791,1452.69L210.924,1452.37L211.06,1452.04L211.198,1451.72L211.339,1451.4L211.481,1451.08L211.625,1450.76L211.772,1450.44L211.921,1450.12L212.071,1449.8L212.224,1449.49L212.379,1449.17L212.536,1448.86L212.695,1448.55L212.856,1448.23L213.019,1447.92L213.185,1447.61L213.352,1447.31L213.521,1447L213.692,1446.69L213.865,1446.38L214.04,1446.08L214.217,1445.78L214.397,1445.48L214.578,1445.17L214.761,1444.87L214.946,1444.58L215.133,1444.28L215.322,1443.98L215.512,1443.68L215.705,1443.39L215.9,1443.1L216.096,1442.81L216.295,1442.51L216.496,1442.22L216.697,1441.94L216.901,1441.65L217.107,1441.36L217.315,1441.08L217.525,1440.79L217.736,1440.51L217.95,1440.23L218.165,1439.95L218.382,1439.67L218.601,1439.39L218.821,1439.12L219.044,1438.84L219.268,1438.57L219.494,1438.29L219.721,1438.02L219.951,1437.75L220.182,1437.48L220.415,1437.21L220.65,1436.95L220.887,1436.68L221.125,1436.42L221.364,1436.16L221.606,1435.9L221.85,1435.64L222.095,1435.38L222.341,1435.12L222.59,1434.87L222.839,1434.61L223.092,1434.36L223.345,1434.11L223.6,1433.86L223.857,1433.61L224.114,1433.36L224.375,1433.11L224.637,1432.87L224.9,1432.63L225.164,1432.38L225.431,1432.14L225.699,1431.9L225.968,1431.67L226.239,1431.43L226.512,1431.2L226.787,1430.96L227.062,1430.73L227.34,1430.5L227.619,1430.27L227.899,1430.04L228.18,1429.82L228.464,1429.59L228.749,1429.37L229.036,1429.15L229.324,1428.93L229.614,1428.71L229.905,1428.5L230.197,1428.28L230.49,1428.07L230.786,1427.85L231.083,1427.64L231.38,1427.43L231.681,1427.23L231.982,1427.02L232.284,1426.82L232.588,1426.61L232.893,1426.41L233.2,1426.21L233.509,1426.02L233.818,1425.82L234.129,1425.62L234.442,1425.43L234.754,1425.24L235.069,1425.05L235.386,1424.86L235.704,1424.67L236.024,1424.49L236.343,1424.31L236.664,1424.13L236.988,1423.94L237.312,1423.77L237.637,1423.59L237.964,1423.42L238.293,1423.24L238.622,1423.07L238.952,1422.9L239.284,1422.74L239.617,1422.57L239.952,1422.4L240.288,1422.24L240.625,1422.08L240.962,1421.92L241.301,1421.77L241.643,1421.61L241.985,1421.46L242.327,1421.31L242.67,1421.15L243.015,1421.01L243.362,1420.86L243.71,1420.72L244.059,1420.57L244.408,1420.43L244.759,1420.29L245.111,1420.16L245.465,1420.02L245.819,1419.89L246.173,1419.76L246.531,1419.63L246.888,1419.5L247.246,1419.37L247.607,1419.25L247.967,1419.13L248.329,1419.01L248.692,1418.89L249.056,1418.77L249.421,1418.66L249.786,1418.55L250.154,1418.43L250.522,1418.33L250.89,1418.22L251.26,1418.12L251.631,1418.01L252.002,1417.91L252.375,1417.81L252.75,1417.72L253.124,1417.62L253.5,1417.53L253.876,1417.44L254.254,1417.35L254.631,1417.27L255.011,1417.18L255.392,1417.1L255.772,1417.02L256.154,1416.94L256.538,1416.87L256.921,1416.79L257.305,1416.72L257.689,1416.65L258.076,1416.58L258.464,1416.52L258.852,1416.45L259.239,1416.39L259.628,1416.33L260.02,1416.28L260.41,1416.22L260.801,1416.17L261.194,1416.12L261.587,1416.07L261.98,1416.02L262.375,1415.98L262.771,1415.94L263.167,1415.9L263.563,1415.86L263.96,1415.83L264.359,1415.79L264.758,1415.76L265.156,1415.73L265.557,1415.71L265.957,1415.68L266.358,1415.66L266.76,1415.64L267.163,1415.63L267.566,1415.61L267.969,1415.6L268.375,1415.59L268.779,1415.58L269.184,1415.57L269.59,1415.57L269.984,1415.57L1716,1415.57L1716.39,1415.57ZM270.01,1429.54L269.689,1429.54L269.382,1429.54L269.075,1429.55L268.768,1429.55L268.464,1429.56L268.158,1429.57L267.853,1429.58L267.55,1429.59L267.246,1429.61L266.943,1429.62L266.641,1429.64L266.34,1429.66L266.038,1429.68L265.737,1429.71L265.438,1429.73L265.138,1429.76L264.839,1429.79L264.54,1429.82L264.244,1429.85L263.947,1429.88L263.649,1429.92L263.354,1429.95L263.059,1429.99L262.764,1430.03L262.469,1430.07L262.177,1430.11L261.884,1430.16L261.59,1430.2L261.299,1430.25L261.01,1430.3L260.72,1430.35L260.43,1430.4L260.14,1430.46L259.851,1430.51L259.565,1430.57L259.278,1430.63L258.99,1430.69L258.706,1430.75L258.421,1430.82L258.136,1430.88L257.853,1430.95L257.57,1431.01L257.287,1431.08L257.005,1431.15L256.726,1431.23L256.446,1431.3L256.165,1431.38L255.887,1431.45L255.61,1431.53L255.332,1431.61L255.055,1431.69L254.78,1431.78L254.505,1431.86L254.231,1431.95L253.958,1432.03L253.685,1432.12L253.414,1432.21L253.142,1432.3L252.872,1432.4L252.602,1432.49L252.333,1432.59L252.067,1432.68L251.798,1432.79L251.532,1432.88L251.267,1432.99L251.003,1433.09L250.738,1433.19L250.475,1433.3L250.213,1433.41L249.952,1433.52L249.692,1433.63L249.432,1433.74L249.173,1433.85L248.914,1433.96L248.657,1434.08L248.403,1434.2L248.147,1434.32L247.891,1434.43L247.638,1434.56L247.386,1434.68L247.134,1434.8L246.884,1434.93L246.634,1435.05L246.385,1435.18L246.136,1435.31L245.89,1435.44L245.644,1435.57L245.398,1435.7L245.154,1435.84L244.911,1435.97L244.668,1436.11L244.426,1436.25L244.186,1436.39L243.948,1436.53L243.71,1436.67L243.472,1436.81L243.235,1436.96L242.999,1437.1L242.765,1437.25L242.532,1437.4L242.3,1437.55L242.069,1437.7L241.839,1437.85L241.609,1438L241.381,1438.16L241.154,1438.31L240.929,1438.47L240.703,1438.63L240.479,1438.78L240.257,1438.94L240.035,1439.11L239.814,1439.27L239.594,1439.43L239.376,1439.6L239.159,1439.76L238.943,1439.93L238.728,1440.1L238.514,1440.27L238.301,1440.44L238.089,1440.61L237.879,1440.78L237.67,1440.95L237.461,1441.13L237.255,1441.31L237.049,1441.48L236.844,1441.66L236.64,1441.84L236.438,1442.02L236.238,1442.2L236.038,1442.38L235.839,1442.57L235.641,1442.75L235.446,1442.94L235.25,1443.13L235.057,1443.31L234.865,1443.5L234.673,1443.69L234.484,1443.88L234.295,1444.08L234.107,1444.27L233.921,1444.46L233.736,1444.66L233.553,1444.85L233.37,1445.05L233.189,1445.25L233.009,1445.45L232.831,1445.65L232.654,1445.85L232.479,1446.05L232.304,1446.25L232.131,1446.46L231.959,1446.66L231.789,1446.87L231.62,1447.07L231.452,1447.28L231.286,1447.49L231.121,1447.7L230.958,1447.91L230.795,1448.12L230.635,1448.33L230.475,1448.55L230.317,1448.76L230.161,1448.97L230.006,1449.19L229.852,1449.41L229.699,1449.62L229.548,1449.84L229.399,1450.06L229.251,1450.28L229.104,1450.5L228.959,1450.72L228.815,1450.95L228.673,1451.17L228.533,1451.39L228.393,1451.62L228.255,1451.85L228.119,1452.07L227.984,1452.3L227.851,1452.53L227.719,1452.76L227.589,1452.99L227.46,1453.22L227.333,1453.45L227.207,1453.68L227.083,1453.91L226.96,1454.15L226.839,1454.38L226.72,1454.62L226.601,1454.85L226.485,1455.09L226.37,1455.33L226.257,1455.57L226.145,1455.8L226.035,1456.04L225.926,1456.28L225.819,1456.53L225.714,1456.77L225.61,1457.01L225.508,1457.25L225.407,1457.5L225.308,1457.74L225.211,1457.99L225.115,1458.23L225.021,1458.48L224.929,1458.73L224.838,1458.98L224.749,1459.22L224.661,1459.47L224.576,1459.72L224.492,1459.97L224.409,1460.23L224.328,1460.48L224.249,1460.73L224.172,1460.98L224.096,1461.24L224.022,1461.49L223.95,1461.75L223.879,1462L223.811,1462.26L223.744,1462.52L223.678,1462.77L223.615,1463.03L223.553,1463.29L223.492,1463.55L223.434,1463.81L223.378,1464.07L223.323,1464.33L223.27,1464.59L223.218,1464.85L223.169,1465.12L223.121,1465.38L223.075,1465.64L223.031,1465.91L222.989,1466.17L222.948,1466.44L222.909,1466.7L222.873,1466.97L222.838,1467.24L222.804,1467.51L222.773,1467.77L222.744,1468.04L222.716,1468.31L222.69,1468.58L222.666,1468.85L222.644,1469.12L222.624,1469.39L222.606,1469.67L222.589,1469.94L222.575,1470.21L222.562,1470.48L222.552,1470.76L222.543,1471.03L222.536,1471.31L222.531,1471.58L222.528,1471.86L222.527,1472.14L222.527,2109.58L222.528,2109.87L222.531,2110.14L222.536,2110.42L222.543,2110.69L222.552,2110.97L222.562,2111.24L222.575,2111.52L222.589,2111.79L222.606,2112.06L222.624,2112.33L222.644,2112.6L222.666,2112.87L222.69,2113.14L222.716,2113.41L222.744,2113.68L222.773,2113.95L222.804,2114.22L222.838,2114.49L222.873,2114.76L222.909,2115.02L222.948,2115.29L222.989,2115.55L223.031,2115.82L223.075,2116.08L223.121,2116.35L223.169,2116.61L223.218,2116.87L223.27,2117.14L223.323,2117.4L223.377,2117.66L223.434,2117.92L223.492,2118.18L223.553,2118.44L223.614,2118.7L223.678,2118.95L223.744,2119.21L223.811,2119.47L223.879,2119.72L223.95,2119.98L224.022,2120.24L224.096,2120.49L224.172,2120.74L224.249,2121L224.328,2121.25L224.409,2121.5L224.492,2121.75L224.576,2122L224.662,2122.25L224.749,2122.5L224.838,2122.75L224.929,2123L225.021,2123.25L225.115,2123.49L225.211,2123.74L225.308,2123.99L225.407,2124.23L225.508,2124.47L225.61,2124.72L225.714,2124.96L225.819,2125.2L225.926,2125.44L226.035,2125.68L226.145,2125.92L226.257,2126.16L226.37,2126.4L226.485,2126.64L226.601,2126.87L226.72,2127.11L226.839,2127.35L226.96,2127.58L227.083,2127.81L227.207,2128.05L227.333,2128.28L227.46,2128.51L227.589,2128.74L227.719,2128.97L227.851,2129.2L227.984,2129.43L228.119,2129.66L228.256,2129.88L228.393,2130.11L228.532,2130.33L228.673,2130.56L228.816,2130.78L228.959,2131L229.104,2131.22L229.251,2131.45L229.399,2131.67L229.548,2131.88L229.699,2132.1L229.851,2132.32L230.006,2132.54L230.161,2132.75L230.317,2132.97L230.476,2133.18L230.634,2133.39L230.795,2133.61L230.958,2133.82L231.121,2134.03L231.286,2134.24L231.453,2134.45L231.62,2134.65L231.788,2134.86L231.959,2135.07L232.131,2135.27L232.305,2135.47L232.479,2135.68L232.654,2135.88L232.831,2136.08L233.01,2136.28L233.19,2136.48L233.37,2136.68L233.552,2136.87L233.737,2137.07L233.922,2137.26L234.106,2137.46L234.294,2137.65L234.483,2137.84L234.673,2138.03L234.865,2138.22L235.058,2138.41L235.25,2138.6L235.445,2138.79L235.643,2138.97L235.84,2139.16L236.038,2139.34L236.237,2139.52L236.438,2139.7L236.641,2139.89L236.844,2140.07L237.049,2140.24L237.254,2140.42L237.461,2140.6L237.67,2140.77L237.879,2140.95L238.09,2141.12L238.302,2141.29L238.514,2141.46L238.728,2141.63L238.944,2141.8L239.159,2141.96L239.375,2142.13L239.595,2142.3L239.815,2142.46L240.034,2142.62L240.255,2142.78L240.479,2142.94L240.703,2143.1L240.928,2143.26L241.155,2143.42L241.381,2143.57L241.609,2143.72L241.839,2143.88L242.067,2144.03L242.301,2144.18L242.532,2144.33L242.764,2144.48L243.001,2144.62L243.236,2144.77L243.471,2144.91L243.71,2145.06L243.948,2145.2L244.186,2145.34L244.426,2145.48L244.667,2145.62L244.911,2145.75L245.155,2145.89L245.399,2146.02L245.644,2146.16L245.889,2146.29L246.136,2146.42L246.385,2146.55L246.634,2146.67L246.883,2146.8L247.134,2146.93L247.387,2147.05L247.639,2147.17L247.891,2147.29L248.145,2147.41L248.402,2147.53L248.66,2147.65L248.916,2147.76L249.172,2147.88L249.43,2147.99L249.692,2148.1L249.953,2148.21L250.212,2148.32L250.475,2148.43L250.738,2148.53L251.003,2148.64L251.268,2148.74L251.532,2148.84L251.799,2148.94L252.065,2149.04L252.332,2149.14L252.602,2149.23L252.871,2149.33L253.143,2149.42L253.414,2149.51L253.685,2149.6L253.958,2149.69L254.231,2149.78L254.505,2149.87L254.78,2149.95L255.056,2150.03L255.331,2150.11L255.611,2150.2L255.887,2150.27L256.164,2150.35L256.447,2150.43L256.726,2150.5L257.005,2150.57L257.288,2150.64L257.57,2150.71L257.852,2150.78L258.137,2150.85L258.421,2150.91L258.703,2150.97L258.991,2151.04L259.278,2151.1L259.565,2151.16L259.853,2151.21L260.139,2151.27L260.431,2151.32L260.719,2151.38L261.007,2151.43L261.302,2151.47L261.592,2151.52L261.883,2151.57L262.177,2151.61L262.469,2151.66L262.765,2151.7L263.059,2151.74L263.354,2151.77L263.649,2151.81L263.946,2151.85L264.243,2151.88L264.54,2151.91L264.841,2151.94L265.138,2151.97L265.435,2151.99L265.739,2152.02L266.04,2152.04L266.337,2152.06L266.64,2152.08L266.943,2152.1L267.245,2152.12L267.55,2152.13L267.856,2152.15L268.16,2152.16L268.461,2152.17L268.769,2152.17L269.075,2152.18L269.382,2152.18L269.689,2152.19L270.007,2152.19L1715.97,2152.19L1716.29,2152.19L1716.6,2152.18L1716.91,2152.18L1717.21,2152.17L1717.52,2152.17L1717.82,2152.16L1718.12,2152.15L1718.43,2152.13L1718.74,2152.12L1719.04,2152.1L1719.34,2152.08L1719.64,2152.06L1719.94,2152.04L1720.24,2152.02L1720.55,2151.99L1720.84,2151.97L1721.14,2151.94L1721.44,2151.91L1721.74,2151.88L1722.04,2151.85L1722.33,2151.81L1722.63,2151.77L1722.92,2151.74L1723.22,2151.7L1723.51,2151.66L1723.8,2151.61L1724.1,2151.57L1724.39,2151.52L1724.68,2151.47L1724.97,2151.43L1725.26,2151.38L1725.55,2151.32L1725.84,2151.27L1726.13,2151.21L1726.42,2151.16L1726.7,2151.1L1726.99,2151.04L1727.28,2150.97L1727.56,2150.91L1727.84,2150.85L1728.13,2150.78L1728.41,2150.71L1728.69,2150.64L1728.98,2150.57L1729.26,2150.5L1729.53,2150.43L1729.82,2150.35L1730.09,2150.27L1730.37,2150.2L1730.65,2150.11L1730.92,2150.03L1731.2,2149.95L1731.48,2149.87L1731.75,2149.78L1732.02,2149.69L1732.3,2149.6L1732.57,2149.51L1732.84,2149.42L1733.11,2149.33L1733.38,2149.23L1733.65,2149.14L1733.91,2149.04L1734.18,2148.94L1734.45,2148.84L1734.71,2148.74L1734.98,2148.64L1735.24,2148.53L1735.51,2148.43L1735.77,2148.32L1736.03,2148.21L1736.29,2148.1L1736.55,2147.99L1736.81,2147.88L1737.07,2147.76L1737.32,2147.65L1737.58,2147.53L1737.84,2147.41L1738.09,2147.29L1738.34,2147.17L1738.59,2147.05L1738.85,2146.93L1739.1,2146.8L1739.35,2146.67L1739.6,2146.55L1739.84,2146.42L1740.09,2146.29L1740.34,2146.16L1740.58,2146.02L1740.83,2145.89L1741.07,2145.75L1741.31,2145.62L1741.55,2145.48L1741.79,2145.34L1742.03,2145.2L1742.27,2145.06L1742.51,2144.91L1742.75,2144.77L1742.98,2144.62L1743.22,2144.48L1743.45,2144.33L1743.68,2144.18L1743.91,2144.03L1744.14,2143.88L1744.37,2143.72L1744.6,2143.57L1744.83,2143.42L1745.05,2143.26L1745.28,2143.1L1745.5,2142.94L1745.73,2142.78L1745.95,2142.62L1746.16,2142.46L1746.39,2142.3L1746.61,2142.13L1746.82,2141.96L1747.04,2141.8L1747.25,2141.63L1747.47,2141.46L1747.68,2141.29L1747.89,2141.12L1748.1,2140.95L1748.31,2140.77L1748.52,2140.6L1748.73,2140.42L1748.93,2140.24L1749.14,2140.07L1749.34,2139.89L1749.54,2139.7L1749.74,2139.52L1749.94,2139.34L1750.14,2139.16L1750.34,2138.97L1750.54,2138.79L1750.73,2138.6L1750.92,2138.41L1751.12,2138.22L1751.31,2138.03L1751.5,2137.84L1751.69,2137.65L1751.87,2137.46L1752.06,2137.26L1752.24,2137.07L1752.43,2136.87L1752.61,2136.68L1752.79,2136.48L1752.97,2136.28L1753.15,2136.08L1753.33,2135.88L1753.5,2135.68L1753.68,2135.47L1753.85,2135.27L1754.02,2135.07L1754.19,2134.86L1754.36,2134.65L1754.53,2134.45L1754.69,2134.24L1754.86,2134.03L1755.02,2133.82L1755.19,2133.61L1755.35,2133.39L1755.51,2133.18L1755.66,2132.97L1755.82,2132.75L1755.98,2132.54L1756.13,2132.32L1756.28,2132.1L1756.43,2131.88L1756.58,2131.67L1756.73,2131.45L1756.88,2131.22L1757.02,2131L1757.16,2130.78L1757.31,2130.56L1757.45,2130.33L1757.59,2130.11L1757.73,2129.88L1757.86,2129.66L1758,2129.43L1758.13,2129.2L1758.26,2128.97L1758.39,2128.74L1758.52,2128.51L1758.65,2128.28L1758.77,2128.05L1758.9,2127.81L1759.02,2127.58L1759.14,2127.35L1759.26,2127.11L1759.38,2126.87L1759.5,2126.64L1759.61,2126.4L1759.72,2126.16L1759.84,2125.92L1759.95,2125.68L1760.06,2125.44L1760.16,2125.2L1760.27,2124.96L1760.37,2124.72L1760.47,2124.47L1760.57,2124.23L1760.67,2123.99L1760.77,2123.74L1760.87,2123.49L1760.96,2123.25L1761.05,2123L1761.14,2122.75L1761.23,2122.5L1761.32,2122.25L1761.4,2122L1761.49,2121.75L1761.57,2121.5L1761.65,2121.25L1761.73,2121L1761.81,2120.74L1761.88,2120.49L1761.96,2120.24L1762.03,2119.98L1762.1,2119.72L1762.17,2119.47L1762.24,2119.21L1762.3,2118.95L1762.37,2118.7L1762.43,2118.44L1762.49,2118.18L1762.55,2117.92L1762.6,2117.66L1762.66,2117.4L1762.71,2117.14L1762.76,2116.87L1762.81,2116.61L1762.86,2116.35L1762.91,2116.08L1762.95,2115.82L1762.99,2115.55L1763.03,2115.29L1763.07,2115.02L1763.11,2114.76L1763.14,2114.49L1763.18,2114.22L1763.21,2113.95L1763.24,2113.68L1763.27,2113.41L1763.29,2113.14L1763.31,2112.87L1763.34,2112.6L1763.36,2112.33L1763.38,2112.06L1763.39,2111.79L1763.41,2111.51L1763.42,2111.24L1763.43,2110.97L1763.44,2110.7L1763.44,2110.42L1763.45,2110.14L1763.45,2109.87L1763.45,2109.58L1763.45,1472.14L1763.45,1471.86L1763.45,1471.58L1763.44,1471.31L1763.44,1471.03L1763.43,1470.76L1763.42,1470.48L1763.41,1470.21L1763.39,1469.94L1763.38,1469.67L1763.36,1469.39L1763.34,1469.12L1763.31,1468.85L1763.29,1468.58L1763.27,1468.31L1763.24,1468.04L1763.21,1467.77L1763.18,1467.51L1763.14,1467.24L1763.11,1466.97L1763.07,1466.7L1763.03,1466.44L1762.99,1466.17L1762.95,1465.91L1762.91,1465.64L1762.86,1465.38L1762.81,1465.12L1762.76,1464.85L1762.71,1464.59L1762.66,1464.33L1762.6,1464.07L1762.55,1463.81L1762.49,1463.55L1762.43,1463.29L1762.37,1463.03L1762.3,1462.77L1762.24,1462.52L1762.17,1462.26L1762.1,1462L1762.03,1461.75L1761.96,1461.49L1761.88,1461.24L1761.81,1460.98L1761.73,1460.73L1761.65,1460.48L1761.57,1460.22L1761.49,1459.97L1761.4,1459.72L1761.32,1459.47L1761.23,1459.22L1761.14,1458.98L1761.05,1458.73L1760.96,1458.48L1760.87,1458.23L1760.77,1457.99L1760.67,1457.74L1760.57,1457.5L1760.47,1457.25L1760.37,1457.01L1760.27,1456.77L1760.16,1456.53L1760.06,1456.29L1759.95,1456.04L1759.84,1455.8L1759.72,1455.57L1759.61,1455.33L1759.5,1455.09L1759.38,1454.85L1759.26,1454.62L1759.14,1454.38L1759.02,1454.15L1758.9,1453.91L1758.77,1453.68L1758.65,1453.45L1758.52,1453.22L1758.39,1452.99L1758.26,1452.76L1758.13,1452.53L1758,1452.3L1757.86,1452.07L1757.73,1451.85L1757.59,1451.62L1757.45,1451.39L1757.31,1451.17L1757.16,1450.95L1757.02,1450.72L1756.88,1450.5L1756.73,1450.28L1756.58,1450.06L1756.43,1449.84L1756.28,1449.62L1756.13,1449.41L1755.98,1449.19L1755.82,1448.97L1755.66,1448.76L1755.51,1448.55L1755.35,1448.33L1755.19,1448.12L1755.02,1447.91L1754.86,1447.7L1754.69,1447.49L1754.53,1447.28L1754.36,1447.07L1754.19,1446.87L1754.02,1446.66L1753.85,1446.46L1753.68,1446.25L1753.5,1446.05L1753.33,1445.85L1753.15,1445.65L1752.97,1445.45L1752.79,1445.25L1752.61,1445.05L1752.43,1444.85L1752.25,1444.66L1752.06,1444.46L1751.87,1444.27L1751.69,1444.08L1751.5,1443.88L1751.31,1443.69L1751.12,1443.5L1750.92,1443.31L1750.73,1443.13L1750.54,1442.94L1750.34,1442.75L1750.14,1442.57L1749.94,1442.38L1749.74,1442.2L1749.54,1442.02L1749.34,1441.84L1749.14,1441.66L1748.93,1441.48L1748.73,1441.31L1748.52,1441.13L1748.31,1440.95L1748.1,1440.78L1747.89,1440.61L1747.68,1440.44L1747.47,1440.27L1747.25,1440.1L1747.04,1439.93L1746.82,1439.76L1746.6,1439.6L1746.39,1439.43L1746.17,1439.27L1745.95,1439.11L1745.72,1438.94L1745.5,1438.78L1745.28,1438.63L1745.05,1438.47L1744.83,1438.31L1744.6,1438.16L1744.37,1438L1744.14,1437.85L1743.91,1437.7L1743.68,1437.55L1743.45,1437.4L1743.22,1437.25L1742.98,1437.1L1742.75,1436.96L1742.51,1436.81L1742.27,1436.67L1742.03,1436.53L1741.79,1436.39L1741.55,1436.25L1741.31,1436.11L1741.07,1435.97L1740.83,1435.84L1740.58,1435.7L1740.34,1435.57L1740.09,1435.44L1739.84,1435.31L1739.6,1435.18L1739.35,1435.05L1739.1,1434.93L1738.85,1434.8L1738.59,1434.68L1738.34,1434.56L1738.09,1434.43L1737.83,1434.32L1737.58,1434.2L1737.32,1434.08L1737.07,1433.96L1736.81,1433.85L1736.55,1433.74L1736.29,1433.63L1736.03,1433.52L1735.77,1433.41L1735.51,1433.3L1735.24,1433.19L1734.98,1433.09L1734.71,1432.99L1734.45,1432.88L1734.18,1432.79L1733.91,1432.68L1733.65,1432.59L1733.38,1432.49L1733.11,1432.4L1732.84,1432.3L1732.57,1432.21L1732.3,1432.12L1732.02,1432.03L1731.75,1431.95L1731.48,1431.86L1731.2,1431.78L1730.93,1431.69L1730.65,1431.61L1730.37,1431.53L1730.09,1431.45L1729.82,1431.38L1729.54,1431.3L1729.26,1431.23L1728.98,1431.15L1728.69,1431.08L1728.41,1431.01L1728.13,1430.95L1727.85,1430.88L1727.56,1430.82L1727.28,1430.75L1726.99,1430.69L1726.7,1430.63L1726.42,1430.57L1726.13,1430.51L1725.84,1430.46L1725.55,1430.4L1725.26,1430.35L1724.97,1430.3L1724.68,1430.25L1724.39,1430.2L1724.1,1430.16L1723.8,1430.11L1723.51,1430.07L1723.22,1430.03L1722.92,1429.99L1722.63,1429.95L1722.33,1429.92L1722.03,1429.88L1721.74,1429.85L1721.44,1429.82L1721.14,1429.79L1720.84,1429.76L1720.54,1429.73L1720.24,1429.71L1719.94,1429.68L1719.64,1429.66L1719.34,1429.64L1719.04,1429.62L1718.73,1429.61L1718.43,1429.59L1718.13,1429.58L1717.82,1429.57L1717.52,1429.56L1717.21,1429.55L1716.91,1429.55L1716.6,1429.54L1716.29,1429.54L1715.97,1429.54L270.01,1429.54Z"/>
        </g>
        <g transform="matrix(1,0,0,1,132.075,-3.56835)">
            <text x="732.588px" y="1779.48px" style="font-family:'OriyaMN', 'Oriya MN';font-size:250px;">...</text>
        </g>
    </g>
</svg>
